<mxfile host="app.diagrams.net" modified="2023-09-07T09:42:15.396Z" agent="Mozilla/5.0 (Windows NT 10.0; Win64; x64) AppleWebKit/537.36 (KHTML, like Gecko) Chrome/116.0.0.0 Safari/537.36 Edg/116.0.1938.69" version="21.7.2" etag="F_S8F0R7KrWiSywLhhaq" type="github">
  <diagram name="第 1 页" id="umPayPDKX5Vnl3uf_1zH">
    <mxGraphModel>
      <root>
        <mxCell id="0" />
        <mxCell id="1" parent="0" />
      </root>
    </mxGraphModel>
  </diagram>
</mxfile>
